<svg xmlns="http://www.w3.org/2000/svg" xmlns:xlink="http://www.w3.org/1999/xlink" width="1281.274" height="511.9" viewBox="0 0 1281.274 511.9"><defs><linearGradient id="a" x1="1.048" x2="-0.064" y2="1.07" gradientUnits="objectBoundingBox"><stop offset="0" stop-color="#656aca"/><stop offset="1" stop-color="#2fd97f"/></linearGradient></defs><g transform="translate(-317.55 -335)"><g transform="translate(803.9 335) rotate(90)"><path d="M460.8,25.55a51.059,51.059,0,0,0-36.8,86.6l-93.5,187.1a42.016,42.016,0,0,0-6.2-.6,51.067,51.067,0,0,0-19.3,3.8l-72.6-81.7a51.087,51.087,0,1,0-95.8-24.6,50.8,50.8,0,0,0,12.6,33.2L60.3,384.85a46.793,46.793,0,0,0-9.1-.9,51.915,51.915,0,1,0,38.6,18l88.8-155.5a48.142,48.142,0,0,0,28.3-2.9l72.6,81.7a51.151,51.151,0,1,0,81.5-10.8l93.5-187.1a42.013,42.013,0,0,0,6.2.6,51.2,51.2,0,0,0,.1-102.4Z" fill="url(#a)"/></g><path d="M89.543-99.51l-26.1,27.686V0H23.414V-230.344H63.439v108.053L85.588-149.66l67.395-80.684h48.41L115.8-128.3,206.3,0H158.836Zm222.75,10.916H267.68V0H227.654V-230.344h81q39.867,0,61.541,17.892t21.674,51.777q0,23.117-11.153,38.713T349.629-97.975L401.361-2.054V0H358.488ZM267.68-120.867h41.133q20.25,0,31.641-10.2t11.391-27.923q0-18.51-10.521-28.635t-31.4-10.441H267.68ZM558.773-53.631H469.547L450.879,0H409.271l87.012-230.344H532.2L619.365,0H577.6ZM480.779-85.9h66.762L514.16-181.459Zm216.58-144.439L763.8-53.789l66.287-176.555h51.732V0H841.957V-75.937L845.912-177.5,777.885,0H749.25L681.381-177.346l3.955,101.408V0H645.469V-230.344Z" transform="translate(717 675)" fill="gray"/></g></svg>